<svg width="88" height="64" viewBox="0 0 88 64" fill="none" xmlns="http://www.w3.org/2000/svg">
<path d="M6.68 13.72V25.2C7.82667 22.6933 9.92 21.44 12.96 21.44C14.9333 21.44 16.52 22.0533 17.72 23.28C18.92 24.5067 19.52 26.2133 19.52 28.4V42H15.6V29.2C15.6 27.8133 15.24 26.7467 14.52 26C13.8267 25.2267 12.9067 24.84 11.76 24.84C10.4267 24.84 9.24 25.3467 8.2 26.36C7.18667 27.3733 6.68 28.92 6.68 31V42H2.76V13.72H6.68ZM24.9513 42V21.72H28.9113V42H24.9513ZM25.1513 17.28C24.6979 16.8 24.4713 16.2133 24.4713 15.52C24.4713 14.8267 24.6979 14.24 25.1513 13.76C25.6313 13.28 26.2179 13.04 26.9113 13.04C27.6046 13.04 28.1913 13.28 28.6713 13.76C29.1513 14.24 29.3913 14.8267 29.3913 15.52C29.3913 16.1867 29.1513 16.76 28.6713 17.24C28.1913 17.72 27.6046 17.96 26.9113 17.96C26.2179 17.96 25.6313 17.7333 25.1513 17.28ZM42.7959 38.84C44.3426 38.84 45.6493 38.2533 46.7159 37.08C47.7826 35.9067 48.3159 34.12 48.3159 31.72C48.3159 29.4 47.7559 27.68 46.6359 26.56C45.5426 25.44 44.3026 24.88 42.9159 24.88C41.3426 24.88 40.0493 25.5067 39.0359 26.76C38.0226 27.9867 37.5159 29.7467 37.5159 32.04C37.5159 34.0667 38.0093 35.7067 38.9959 36.96C40.0093 38.2133 41.2759 38.84 42.7959 38.84ZM48.3159 13.72H52.2759V42H48.3159V38.92C46.9026 41.16 44.8359 42.28 42.1159 42.28C39.4493 42.28 37.3426 41.28 35.7959 39.28C34.2493 37.2533 33.4759 34.8133 33.4759 31.96C33.4759 28.7867 34.2893 26.24 35.9159 24.32C37.5426 22.4 39.6359 21.44 42.1959 21.44C44.8359 21.44 46.8759 22.56 48.3159 24.8V13.72ZM70.3991 30.4V29.68C70.3457 28.16 69.9324 26.96 69.1591 26.08C68.3857 25.1733 67.2791 24.72 65.8391 24.72C64.5057 24.72 63.3591 25.2133 62.3991 26.2C61.4391 27.16 60.8391 28.56 60.5991 30.4H70.3991ZM72.9191 37.4V40.92C71.4257 41.7733 69.4524 42.2 66.9991 42.2C63.8524 42.2 61.3457 41.2533 59.4791 39.36C57.6124 37.4667 56.6791 34.9867 56.6791 31.92C56.6791 28.6667 57.5324 26.12 59.2391 24.28C60.9457 22.4133 63.1191 21.48 65.7591 21.48C68.3457 21.48 70.3991 22.2933 71.9191 23.92C73.4391 25.52 74.1991 27.84 74.1991 30.88C74.1991 31.7067 74.1191 32.5733 73.9591 33.48H60.6391C60.9057 35.24 61.6524 36.5867 62.8791 37.52C64.1057 38.4533 65.6524 38.92 67.5191 38.92C69.6791 38.92 71.4791 38.4133 72.9191 37.4Z" fill="#FB4C61"/>
<path d="M81.16 22.2V25.76C82.1467 23.2533 83.92 22 86.48 22C86.8533 22 87.2666 22.04 87.72 22.12V25.96C87.16 25.72 86.5333 25.6 85.84 25.6C84.48 25.6 83.36 26.2 82.48 27.4C81.6 28.6 81.16 30.0267 81.16 31.68V42.48H77.24V22.2H81.16Z" fill="#FB4C61" fill-opacity="0.26"/>
</svg>
